<svg xmlns="http://www.w3.org/2000/svg" width="420" height="320" viewBox="0 0 420 320" role="img" aria-label="Boy coding illustration">
  <defs>
    <linearGradient id="bg" x1="0" y1="0" x2="1" y2="1">
      <stop offset="0%" stop-color="#7928CA"/>
      <stop offset="55%" stop-color="#FF0080"/>
      <stop offset="100%" stop-color="#00D9FF"/>
    </linearGradient>
    <linearGradient id="screen" x1="0" y1="0" x2="1" y2="1">
      <stop offset="0%" stop-color="#0D1117"/>
      <stop offset="100%" stop-color="#151B23"/>
    </linearGradient>
    <filter id="shadow" x="-20%" y="-20%" width="140%" height="140%">
      <feDropShadow dx="0" dy="10" stdDeviation="12" flood-color="#000" flood-opacity="0.35"/>
    </filter>
    <filter id="glow" x="-30%" y="-30%" width="160%" height="160%">
      <feGaussianBlur stdDeviation="5" result="b"/>
      <feColorMatrix in="b" type="matrix"
        values="1 0 0 0 0
                0 1 0 0 0
                0 0 1 0 0
                0 0 0 0.55 0" result="c"/>
      <feMerge>
        <feMergeNode in="c"/>
        <feMergeNode in="SourceGraphic"/>
      </feMerge>
    </filter>
    <style>
      .card { fill: rgba(13,17,23,0.72); stroke: rgba(255,255,255,0.16); stroke-width: 1; }
      .desk { fill: rgba(13,17,23,0.55); stroke: rgba(255,255,255,0.14); stroke-width: 1; }
      .skin { fill: #F2C9A0; }
      .hair { fill: #1A1A1A; }
      .shirt { fill: rgba(0,217,255,0.18); stroke: rgba(0,217,255,0.55); stroke-width: 2; }
      .hood { fill: rgba(255,0,128,0.18); stroke: rgba(255,0,128,0.55); stroke-width: 2; }
      .line { stroke: rgba(255,255,255,0.70); stroke-width: 5; stroke-linecap: round; }
      .dim { stroke: rgba(255,255,255,0.32); }
      .a1 { stroke: #00D9FF; }
      .a2 { stroke: #FF0080; }
      .cursor { fill: #00D9FF; }
      @keyframes blink { 0%,49%{opacity:1} 50%,100%{opacity:0.12} }
      @keyframes float { 0%,100%{transform:translateY(0)} 50%{transform:translateY(-6px)} }
      .float { animation: float 3.2s ease-in-out infinite; }
      .blink { animation: blink 1s steps(2,end) infinite; }
    </style>
  </defs>

  <!-- background -->
  <rect x="18" y="18" width="384" height="284" rx="26" fill="url(#bg)" opacity="0.16"/>
  <circle cx="92" cy="86" r="64" fill="rgba(255,255,255,0.10)"/>
  <circle cx="340" cy="256" r="88" fill="rgba(0,0,0,0.10)"/>

  <g class="float" filter="url(#shadow)">
    <!-- scene card -->
    <rect x="34" y="34" width="352" height="252" rx="22" class="card"/>

    <!-- laptop -->
    <g transform="translate(120,120)">
      <rect x="22" y="40" width="156" height="96" rx="10" fill="url(#screen)" stroke="rgba(255,255,255,0.18)" stroke-width="2"/>
      <rect x="30" y="48" width="140" height="68" rx="8" fill="rgba(0,0,0,0.35)"/>
      <g filter="url(#glow)">
        <path class="line dim" d="M40 62 H128"/>
        <path class="line a2" d="M40 82 H112"/>
        <path class="line dim" d="M40 102 H144"/>
        <rect class="cursor blink" x="118" y="94" width="8" height="14" rx="2"/>
      </g>
      <path d="M10 140 H190" stroke="rgba(255,255,255,0.22)" stroke-width="10" stroke-linecap="round"/>
      <path d="M26 140 H174" stroke="rgba(13,17,23,0.7)" stroke-width="6" stroke-linecap="round"/>
    </g>

    <!-- desk -->
    <rect x="70" y="240" width="280" height="26" rx="13" class="desk"/>

    <!-- boy -->
    <g transform="translate(84,78)">
      <!-- head -->
      <circle cx="110" cy="70" r="34" class="skin"/>
      <!-- hair -->
      <path class="hair" d="M80,68 C82,40 100,30 120,32 C140,34 150,46 150,66 C142,56 130,52 112,52 C96,52 88,56 80,68 Z"/>
      <path class="hair" d="M83,64 C88,44 104,38 122,40 C138,42 148,54 148,70 C140,60 128,56 112,56 C98,56 90,58 83,64 Z" opacity="0.55"/>
      <!-- face -->
      <circle cx="98" cy="72" r="4" fill="#1A1A1A"/>
      <circle cx="122" cy="72" r="4" fill="#1A1A1A"/>
      <path d="M102 86 Q110 92 118 86" stroke="rgba(26,26,26,0.55)" stroke-width="3" fill="none" stroke-linecap="round"/>
      <!-- hoodie -->
      <path class="hood" d="M74 128 C78 106 92 96 110 96 C128 96 142 106 146 128 L156 170 C158 178 152 186 144 186 H76 C68 186 62 178 64 170 Z"/>
      <path class="shirt" d="M86 134 C92 120 100 112 110 112 C120 112 128 120 134 134 L142 170 H78 Z"/>
      <!-- arms -->
      <path d="M80 150 C70 156 62 168 60 178" stroke="#F2C9A0" stroke-width="14" stroke-linecap="round"/>
      <path d="M140 150 C150 156 158 168 160 178" stroke="#F2C9A0" stroke-width="14" stroke-linecap="round"/>
      <!-- hands on keyboard -->
      <circle cx="64" cy="180" r="9" class="skin"/>
      <circle cx="156" cy="180" r="9" class="skin"/>
    </g>

    <!-- floating code symbols -->
    <g filter="url(#glow)" opacity="0.9">
      <path d="M78 92 L60 104 L78 116" fill="none" stroke="#00D9FF" stroke-width="6" stroke-linecap="round" stroke-linejoin="round"/>
      <path d="M342 116 L360 104 L342 92" fill="none" stroke="#FF0080" stroke-width="6" stroke-linecap="round" stroke-linejoin="round"/>
      <path d="M312 88 L298 126" fill="none" stroke="rgba(255,255,255,0.55)" stroke-width="6" stroke-linecap="round"/>
    </g>
  </g>
</svg>
