<svg xmlns="http://www.w3.org/2000/svg" width="1200" height="320" viewBox="0 0 1200 320" role="img" aria-label="Shankar Chakraborty - Technical Lead at TCS">
  <defs>
    <linearGradient id="bg" x1="0" y1="0" x2="1" y2="1">
      <stop offset="0%" stop-color="#7928CA"/>
      <stop offset="50%" stop-color="#FF0080"/>
      <stop offset="100%" stop-color="#00D9FF"/>
    </linearGradient>
    <filter id="shadow" x="-20%" y="-20%" width="140%" height="140%">
      <feDropShadow dx="0" dy="10" stdDeviation="14" flood-color="#000000" flood-opacity="0.35"/>
    </filter>
    <style>
      .title { font: 800 64px ui-sans-serif, -apple-system, BlinkMacSystemFont, "Segoe UI", Roboto, Arial, "Apple Color Emoji","Segoe UI Emoji"; fill: #ffffff; }
      .subtitle { font: 600 28px ui-sans-serif, -apple-system, BlinkMacSystemFont, "Segoe UI", Roboto, Arial; fill: rgba(255,255,255,0.92); }
      .pill { fill: rgba(13,17,23,0.55); stroke: rgba(255,255,255,0.18); stroke-width: 1; }
      .pillText { font: 600 22px ui-sans-serif, -apple-system, BlinkMacSystemFont, "Segoe UI", Roboto, Arial; fill: #ffffff; }
    </style>
  </defs>

  <rect width="1200" height="320" rx="28" fill="url(#bg)"/>

  <!-- Soft highlight -->
  <circle cx="220" cy="90" r="180" fill="rgba(255,255,255,0.12)"/>
  <circle cx="1040" cy="250" r="220" fill="rgba(0,0,0,0.10)"/>

  <g filter="url(#shadow)">
    <text x="70" y="120" class="title">Shankar Chakraborty</text>
    <text x="70" y="170" class="subtitle">Technical Lead @ TCS • Full-Stack • Azure / AKS</text>

    <!-- Pills -->
    <g transform="translate(70,205)">
      <rect class="pill" x="0" y="0" rx="16" width="270" height="44"/>
      <text class="pillText" x="18" y="30">Brampton, Toronto 🇨🇦</text>
    </g>
    <g transform="translate(360,205)">
      <rect class="pill" x="0" y="0" rx="16" width="260" height="44"/>
      <text class="pillText" x="18" y="30">Spring Boot • Angular</text>
    </g>
    <g transform="translate(640,205)">
      <rect class="pill" x="0" y="0" rx="16" width="260" height="44"/>
      <text class="pillText" x="18" y="30">CI/CD • Docker • K8s</text>
    </g>
  </g>

  <!-- Bottom wave -->
  <path d="M0,292 C220,332 420,250 620,290 C820,330 980,260 1200,300 L1200,320 L0,320 Z" fill="rgba(13,17,23,0.28)"/>
</svg>
